<svg xmlns="http://www.w3.org/2000/svg" viewBox="0 0 500 500"><g id="freepik--background-simple--inject-67"><path d="M323.83,36.06S244.49,4.89,168.61,48.88,56.28,183.38,24.83,255.82,14.63,403.43,74.41,439.1s98.47-13.38,181-13.52,105.06,12.73,172.29-33.76,76.55-160.45,20.22-246.54S323.83,36.06,323.83,36.06Z" style="fill:#92E3A9"></path><path d="M323.83,36.06S244.49,4.89,168.61,48.88,56.28,183.38,24.83,255.82,14.63,403.43,74.41,439.1s98.47-13.38,181-13.52,105.06,12.73,172.29-33.76,76.55-160.45,20.22-246.54S323.83,36.06,323.83,36.06Z" style="fill:#fff;opacity:0.7000000000000001"></path></g><g id="freepik--Numbers--inject-67"><path d="M121,472.43v-35.6a9.25,9.25,0,0,1-1.2.31q-1.14.27-2.58.54l-2.55.47c-.74.15-1.13.22-1.17.22v-4.31c.6-.14,1.31-.34,2.1-.58a25.53,25.53,0,0,0,2.45-.91,12.5,12.5,0,0,0,2.39-1.33,8.38,8.38,0,0,0,1.94-1.86h4.3v43.05Z" style="fill:#263238"></path><path d="M231.81,472.43v-4l10.94-17.06c.82-1.27,1.57-2.46,2.26-3.56a17.8,17.8,0,0,0,1.7-3.48,12.17,12.17,0,0,0,.67-4.22,9.55,9.55,0,0,0-1-4.68,3.52,3.52,0,0,0-3.35-1.7,4.21,4.21,0,0,0-3.13,1.12,5.83,5.83,0,0,0-1.54,2.92,16.53,16.53,0,0,0-.43,3.88V443h-5.69v-1.49a19.27,19.27,0,0,1,1-6.67,8.73,8.73,0,0,1,3.35-4.33,11,11,0,0,1,6.14-1.54c3.47,0,6.06,1,7.76,2.95s2.55,4.69,2.55,8.16a15.72,15.72,0,0,1-.67,4.84,19.08,19.08,0,0,1-1.72,3.88q-1.06,1.8-2.34,3.72l-9.89,15.09h13.61v4.78Z" style="fill:#263238"></path><path d="M355.5,472.91a11.67,11.67,0,0,1-5.85-1.33,8.33,8.33,0,0,1-3.5-3.82,13.83,13.83,0,0,1-1.17-5.9v-1.44h5.63v1a16.12,16.12,0,0,0,.45,3.45,4.74,4.74,0,0,0,1.44,2.45,4.44,4.44,0,0,0,3,.9,4.51,4.51,0,0,0,3.14-1,5.17,5.17,0,0,0,1.43-2.79,20.64,20.64,0,0,0,.37-4.15,10.89,10.89,0,0,0-1.25-5.55,5.07,5.07,0,0,0-4.38-2.37,1.5,1.5,0,0,0-.4,0H354V446.6h.75a5.89,5.89,0,0,0,4.36-1.59q1.32-1.49,1.32-4.94a9.52,9.52,0,0,0-1-4.68c-.66-1.17-2-1.75-3.91-1.75s-3.24.64-3.88,1.94a12.32,12.32,0,0,0-1.06,5v.91H345V440a13.58,13.58,0,0,1,1.17-5.9,8.41,8.41,0,0,1,3.53-3.77,13.68,13.68,0,0,1,11.77,0,8.4,8.4,0,0,1,3.51,3.8,13.75,13.75,0,0,1,1.17,5.93,10.53,10.53,0,0,1-1.67,6.22,8.35,8.35,0,0,1-4.5,3.18,7.44,7.44,0,0,1,3.33,2,9.88,9.88,0,0,1,2.1,3.64,16.23,16.23,0,0,1,.74,5.13,19,19,0,0,1-1.06,6.67,8.9,8.9,0,0,1-3.4,4.41A10.88,10.88,0,0,1,355.5,472.91Z" style="fill:#263238"></path></g><g id="freepik--Calendar--inject-67"><g style="opacity:0.30000000000000004"><path d="M382.54,272.78H310a.5.5,0,0,1-.5-.5V212.43a.5.5,0,0,1,.5-.5h24.31a.5.5,0,0,1,.5.5v2.42a2.15,2.15,0,1,0,4.3,0v-2.42a.5.5,0,0,1,.5-.5h13.31a.5.5,0,0,1,.5.5v2.42a2.15,2.15,0,1,0,4.29,0v-2.42a.5.5,0,0,1,.5-.5h24.32a.5.5,0,0,1,.5.5v59.85A.5.5,0,0,1,382.54,272.78Zm-72-1H382V212.93H358.72v1.92a3.15,3.15,0,1,1-6.29,0v-1.92H340.12v1.92a3.15,3.15,0,1,1-6.3,0v-1.92H310.51Z"></path><path d="M323.5,238.88h-9.11a.5.5,0,0,1-.5-.5v-9.1a.5.5,0,0,1,.5-.5h9.11a.5.5,0,0,1,.5.5v9.1A.5.5,0,0,1,323.5,238.88Zm-8.61-1H323v-8.1h-8.11Z"></path><path d="M337.17,238.88h-9.11a.5.5,0,0,1-.5-.5v-9.1a.5.5,0,0,1,.5-.5h9.11a.5.5,0,0,1,.5.5v9.1A.5.5,0,0,1,337.17,238.88Zm-8.61-1h8.11v-8.1h-8.11Z"></path><path d="M350.83,238.88h-9.11a.5.5,0,0,1-.5-.5v-9.1a.5.5,0,0,1,.5-.5h9.11a.5.5,0,0,1,.5.5v9.1A.5.5,0,0,1,350.83,238.88Zm-8.61-1h8.11v-8.1h-8.11Z"></path><path d="M364.49,238.88h-9.11a.5.5,0,0,1-.5-.5v-9.1a.5.5,0,0,1,.5-.5h9.11a.5.5,0,0,1,.5.5v9.1A.5.5,0,0,1,364.49,238.88Zm-8.61-1H364v-8.1h-8.11Z"></path><path d="M378.16,238.88h-9.11a.5.5,0,0,1-.5-.5v-9.1a.5.5,0,0,1,.5-.5h9.11a.5.5,0,0,1,.5.5v9.1A.5.5,0,0,1,378.16,238.88Zm-8.61-1h8.11v-8.1h-8.11Z"></path><path d="M323.5,252.93h-9.11a.51.51,0,0,1-.5-.5v-9.11a.5.5,0,0,1,.5-.5h9.11a.5.5,0,0,1,.5.5v9.11A.5.5,0,0,1,323.5,252.93Zm-8.61-1H323v-8.11h-8.11Z"></path><path d="M337.17,252.93h-9.11a.5.5,0,0,1-.5-.5v-9.11a.5.5,0,0,1,.5-.5h9.11a.5.5,0,0,1,.5.5v9.11A.51.51,0,0,1,337.17,252.93Zm-8.61-1h8.11v-8.11h-8.11Z"></path><path d="M350.83,252.93h-9.11a.51.51,0,0,1-.5-.5v-9.11a.5.5,0,0,1,.5-.5h9.11a.5.5,0,0,1,.5.5v9.11A.5.5,0,0,1,350.83,252.93Zm-8.61-1h8.11v-8.11h-8.11Z"></path><path d="M364.49,252.93h-9.11a.51.51,0,0,1-.5-.5v-9.11a.5.5,0,0,1,.5-.5h9.11a.5.5,0,0,1,.5.5v9.11A.5.5,0,0,1,364.49,252.93Zm-8.61-1H364v-8.11h-8.11Z"></path><path d="M378.16,252.93h-9.11a.5.5,0,0,1-.5-.5v-9.11a.5.5,0,0,1,.5-.5h9.11a.5.5,0,0,1,.5.5v9.11A.51.51,0,0,1,378.16,252.93Zm-8.61-1h8.11v-8.11h-8.11Z"></path><path d="M323.5,267h-9.11a.5.5,0,0,1-.5-.5v-9.11a.51.51,0,0,1,.5-.5h9.11a.5.5,0,0,1,.5.5v9.11A.5.5,0,0,1,323.5,267Zm-8.61-1H323v-8.11h-8.11Z"></path><path d="M337.17,267h-9.11a.5.5,0,0,1-.5-.5v-9.11a.5.5,0,0,1,.5-.5h9.11a.51.51,0,0,1,.5.5v9.11A.5.5,0,0,1,337.17,267Zm-8.61-1h8.11v-8.11h-8.11Z"></path><path d="M350.83,267h-9.11a.5.5,0,0,1-.5-.5v-9.11a.51.51,0,0,1,.5-.5h9.11a.5.5,0,0,1,.5.5v9.11A.5.5,0,0,1,350.83,267Zm-8.61-1h8.11v-8.11h-8.11Z"></path><path d="M364.49,267h-9.11a.5.5,0,0,1-.5-.5v-9.11a.51.51,0,0,1,.5-.5h9.11a.5.5,0,0,1,.5.5v9.11A.5.5,0,0,1,364.49,267Zm-8.61-1H364v-8.11h-8.11Z"></path><path d="M378.16,267h-9.11a.5.5,0,0,1-.5-.5v-9.11a.5.5,0,0,1,.5-.5h9.11a.51.51,0,0,1,.5.5v9.11A.5.5,0,0,1,378.16,267Zm-8.61-1h8.11v-8.11h-8.11Z"></path><path d="M337,218a3.16,3.16,0,0,1-3.15-3.15v-9.11a3.15,3.15,0,0,1,6.3,0v9.11A3.15,3.15,0,0,1,337,218Zm0-14.4a2.15,2.15,0,0,0-2.15,2.14v9.11a2.15,2.15,0,1,0,4.3,0v-9.11A2.14,2.14,0,0,0,337,203.6Z"></path><path d="M355.58,218a3.16,3.16,0,0,1-3.15-3.15v-9.11a3.15,3.15,0,0,1,6.29,0v9.11A3.15,3.15,0,0,1,355.58,218Zm0-14.4a2.15,2.15,0,0,0-2.15,2.14v9.11a2.15,2.15,0,1,0,4.29,0v-9.11A2.14,2.14,0,0,0,355.58,203.6Z"></path></g></g><g id="freepik--Chart--inject-67"><g style="opacity:0.30000000000000004"><path d="M49,182.79H38.3a.5.5,0,0,1-.5-.5V157.56a.5.5,0,0,1,.5-.5H49a.5.5,0,0,1,.5.5v24.73A.5.5,0,0,1,49,182.79Zm-10.17-1h9.67V158.06H38.8Z"></path><path d="M63.26,182.79H52.59a.5.5,0,0,1-.5-.5V144.92a.5.5,0,0,1,.5-.5H63.26a.5.5,0,0,1,.5.5v37.37A.5.5,0,0,1,63.26,182.79Zm-10.17-1h9.67V145.42H53.09Z"></path><path d="M77.55,182.79H66.87a.5.5,0,0,1-.5-.5V129a.5.5,0,0,1,.5-.5H77.55a.5.5,0,0,1,.5.5v53.31A.5.5,0,0,1,77.55,182.79Zm-10.18-1h9.68V129.48H67.37Z"></path><path d="M91.84,182.79H81.16a.5.5,0,0,1-.5-.5V118a.5.5,0,0,1,.5-.5H91.84a.5.5,0,0,1,.5.5v64.3A.5.5,0,0,1,91.84,182.79Zm-10.18-1h9.68v-63.3H81.66Z"></path></g></g><g id="freepik--Target--inject-67"><circle cx="439.98" cy="132.89" r="53.11" transform="translate(34.9 350.04) rotate(-45)" style="fill:#92E3A9"></circle><path d="M440,186.5a53.61,53.61,0,1,1,53.61-53.61A53.67,53.67,0,0,1,440,186.5Zm0-106.22a52.61,52.61,0,1,0,52.61,52.61A52.67,52.67,0,0,0,440,80.28Z" style="fill:#263238"></path><circle cx="439.98" cy="132.89" r="42.53" transform="translate(34.9 350.04) rotate(-45)" style="fill:#fff"></circle><path d="M440,175.92a43,43,0,1,1,43-43A43.08,43.08,0,0,1,440,175.92Zm0-85.06a42,42,0,1,0,42,42A42.08,42.08,0,0,0,440,90.86Z" style="fill:#263238"></path><circle cx="439.98" cy="132.89" r="27.23" transform="translate(34.9 350.04) rotate(-45)" style="fill:#92E3A9"></circle><path d="M440,160.62a27.73,27.73,0,1,1,27.73-27.73A27.76,27.76,0,0,1,440,160.62Zm0-54.46a26.73,26.73,0,1,0,26.73,26.73A26.76,26.76,0,0,0,440,106.16Z" style="fill:#263238"></path><circle cx="439.98" cy="132.89" r="15.39" transform="translate(34.9 350.04) rotate(-45)" style="fill:#fff"></circle><path d="M440,148.78a15.89,15.89,0,1,1,15.89-15.89A15.91,15.91,0,0,1,440,148.78ZM440,118a14.89,14.89,0,1,0,14.89,14.89A14.91,14.91,0,0,0,440,118Z" style="fill:#263238"></path><path d="M446.48,132.89a6.5,6.5,0,1,0-6.5,6.5A6.5,6.5,0,0,0,446.48,132.89Z" style="fill:#263238"></path><path d="M440,139.89a7,7,0,1,1,7-7A7,7,0,0,1,440,139.89Zm0-13a6,6,0,1,0,6,6A6,6,0,0,0,440,126.89Z" style="fill:#263238"></path><path d="M438.69,134.18H367.27V131.6h71.42a1.29,1.29,0,0,1,1.29,1.29h0A1.29,1.29,0,0,1,438.69,134.18Z" style="fill:#263238"></path><path d="M438.69,134.68H367.27a.5.5,0,0,1-.5-.5V131.6a.5.5,0,0,1,.5-.5h71.42a1.79,1.79,0,1,1,0,3.58Zm-70.92-1h70.92a.79.79,0,1,0,0-1.58H367.77Z" style="fill:#263238"></path><polygon points="360.92 123.73 361.32 124.19 368.78 131.59 346.45 131.59 338.46 123.73 360.92 123.73" style="fill:#263238"></polygon><path d="M368.78,132.09H346.45a.5.5,0,0,1-.35-.14l-8-7.86a.51.51,0,0,1-.12-.55.5.5,0,0,1,.47-.31h22.46a.49.49,0,0,1,.38.17l.4.46,7.44,7.38a.51.51,0,0,1,.11.54A.5.5,0,0,1,368.78,132.09Zm-22.13-1h20.92l-6.88-6.86h-21Z" style="fill:#263238"></path><path d="M338.46,141.75l8-7.6h22.33a48.18,48.18,0,0,0-7.92,7.6Z" style="fill:#263238"></path><path d="M360.86,142.25h-22.4a.51.51,0,0,1-.47-.32.49.49,0,0,1,.12-.54l8-7.6a.52.52,0,0,1,.35-.14h22.33a.5.5,0,0,1,.48.35.47.47,0,0,1-.18.55,48,48,0,0,0-7.84,7.52A.53.53,0,0,1,360.86,142.25Zm-21.15-1h20.91a49.63,49.63,0,0,1,6.71-6.6H346.65Z" style="fill:#263238"></path></g><g id="freepik--Arrows--inject-67"><path d="M41.72,131.77l-.57-.82,88.95-61.2.27.14,89.09,46a8.49,8.49,0,0,0,6.87.41l54.81-20.45-2.7,15.85L322,71.51l-59.19-1.82L275.2,79.88,223.91,99l-.19-.1L133.37,52.31a8.5,8.5,0,0,0-8.71.56L31.52,117l-.57-.83L124.09,52a9.5,9.5,0,0,1,9.74-.62L224,97.93l49.24-18.37-13.34-11,64.56,2L277,114.38l2.91-17L226.68,117.2a9.5,9.5,0,0,1-7.67-.46L130.17,70.92Z" style="opacity:0.30000000000000004"></path><polygon points="99.88 251.37 99.54 250.43 277.06 186.08 274.12 201.89 318.24 162.39 259.08 159.7 271.34 170.07 270.53 170.37 93.84 234.41 93.5 233.47 269.38 169.72 256.2 158.56 320.73 161.5 272.6 204.59 275.75 187.62 99.88 251.37" style="opacity:0.30000000000000004"></polygon><polygon points="16.43 386.24 16.09 385.3 236.39 306.8 233.45 322.6 277.57 283.1 218.41 280.41 230.68 290.79 229.86 291.08 10.38 369.28 10.05 368.34 228.71 290.43 215.53 279.27 280.06 282.22 231.93 325.3 235.09 308.32 16.43 386.24" style="opacity:0.30000000000000004"></polygon></g><g id="freepik--Stairs--inject-67"><path d="M64.91,478.24a.5.5,0,0,1-.5-.5V422.12a.5.5,0,0,1,.5-.5h57.78V399.17a.5.5,0,0,1,.5-.5H181V376.22a.5.5,0,0,1,.5-.5h57.76V353.28a.5.5,0,0,1,.5-.5h57.77V330.33a.5.5,0,0,1,.5-.5h57.77V307.39a.5.5,0,0,1,.5-.5H414V284.44a.5.5,0,0,1,.5-.5H472.8a.5.5,0,0,1,.5.5.51.51,0,0,1-.5.5H415v22.45a.5.5,0,0,1-.5.5H356.76v22.44a.5.5,0,0,1-.5.5H298.49v22.45a.5.5,0,0,1-.5.5H240.22v22.44a.5.5,0,0,1-.5.5H182v22.45a.5.5,0,0,1-.5.5H123.69v22.45a.51.51,0,0,1-.5.5H65.41v55.12A.5.5,0,0,1,64.91,478.24Z" style="fill:#263238"></path><path d="M181.46,479.12a.5.5,0,0,1-.5-.5V406.35a.5.5,0,0,1,.5-.5.5.5,0,0,1,.5.5v72.27A.5.5,0,0,1,181.46,479.12Z" style="fill:#263238"></path><path d="M298.44,479.12a.5.5,0,0,1-.5-.5V363.13a.51.51,0,0,1,.5-.5.5.5,0,0,1,.5.5V478.62A.5.5,0,0,1,298.44,479.12Z" style="fill:#263238"></path><path d="M415.42,479.12a.5.5,0,0,1-.5-.5V324.39a.5.5,0,0,1,.5-.5.5.5,0,0,1,.5.5V478.62A.5.5,0,0,1,415.42,479.12Z" style="fill:#263238"></path></g><g id="freepik--Character--inject-67"><path d="M69.82,387.07l-.42,4.83,3.1,6.54s3.13,3.24,2.59,4.37a2.37,2.37,0,0,1-2.29,1.5c-.84-.06-11.2-4.88-13.87-6.17s-3.47-7.22-4-9-5.49-6.64-4.28-9.88,7.25-6.4,7.25-6.4Z" style="fill:#fff"></path><path d="M73,404.81h-.18c-1.13-.08-13.93-6.15-14.06-6.22-2.41-1.16-3.37-5.47-3.94-8-.12-.54-.21-1-.31-1.31A11.76,11.76,0,0,0,53,386.91c-1.58-2.28-3.76-5.39-2.84-7.85,1.27-3.38,7.24-6.54,7.49-6.67a.5.5,0,0,1,.62.12L70.2,386.75a.48.48,0,0,1,.12.36l-.41,4.7,3,6.34c1,1.08,3.23,3.6,2.62,4.87A2.89,2.89,0,0,1,73,404.81ZM57.8,373.47c-1.28.72-5.69,3.35-6.66,5.94-.74,2,1.26,4.83,2.72,6.93A11.42,11.42,0,0,1,55.43,389c.09.33.2.81.32,1.36.49,2.24,1.42,6.41,3.39,7.36,3.66,1.76,12.87,6,13.71,6.12a1.86,1.86,0,0,0,1.79-1.22c.2-.43-1-2.24-2.5-3.81l-.09-.13L69,392.12a.47.47,0,0,1,0-.26l.4-4.63Z" style="fill:#263238"></path><path d="M103,293.12l2.53,36.16L59.7,369.87l-4.55,4.75s5.58,9.3,7.93,11.34a17.07,17.07,0,0,0,6.13,3,12.06,12.06,0,0,0,2.62-4.18c.94-2.57,2-6.61,2-6.61s52.64-34.07,53.84-35.3,6.4-40.76,6.4-40.76Z" style="fill:#263238"></path><path d="M69.21,389.41h-.12a17.3,17.3,0,0,1-6.34-3.07c-2.38-2.06-7.8-11.07-8-11.45a.53.53,0,0,1,.07-.61l4.55-4.75L105,329.07l-2.52-35.91a.5.5,0,0,1,.18-.43.52.52,0,0,1,.45-.09l31.09,8.94a.49.49,0,0,1,.35.54c-1.22,9.31-5.31,39.79-6.54,41.05s-47.64,31.31-53.76,35.27c-.22.83-1.12,4.21-1.94,6.46a12.39,12.39,0,0,1-2.74,4.37A.52.52,0,0,1,69.21,389.41ZM55.78,374.69c1,1.66,5.61,9.14,7.62,10.89a16,16,0,0,0,5.66,2.77,11.74,11.74,0,0,0,2.3-3.79c.92-2.52,2-6.52,2-6.56a.54.54,0,0,1,.21-.3c14.57-9.42,52.61-34.12,53.76-35.23.85-1.34,4.16-24.53,6.21-40.05l-30-8.62L106,329.24a.51.51,0,0,1-.16.41L60,370.24Z" style="fill:#263238"></path><path d="M89.6,350.24a.5.5,0,0,1,0-1c5.62-.56,31.13-6.84,31.39-6.91a.5.5,0,0,1,.6.37.49.49,0,0,1-.36.6c-1.06.26-25.84,6.37-31.53,6.94Z" style="fill:#fff"></path><path d="M90.16,347.19a.5.5,0,0,1-.08-1l9.85-1.61a.5.5,0,0,1,.57.42.49.49,0,0,1-.41.57l-9.85,1.61Z" style="fill:#fff"></path><path d="M148.87,383.66l9.19,6.53s6.22,3.52,7.15,3.63a1.9,1.9,0,0,1,1.83,1.93c-.12,1.09-2.19,2.75-5.84,3s-14-1.7-14.75-1.79-10.85-4.35-13.6-5.13-3.3-4.3-2.74-6.44,4.26-7.24,4.26-7.24Z" style="fill:#fff"></path><path d="M160.55,399.24c-3.33,0-9.93-1.11-12.86-1.6-.69-.12-1.15-.2-1.3-.21-.38-.05-1.87-.63-5.43-2-3.18-1.27-6.78-2.7-8.24-3.11-3.13-.88-3.7-4.73-3.1-7s4.19-7.2,4.35-7.41a.5.5,0,0,1,.58-.17l14.5,5.54.11.06,9.19,6.53a54.68,54.68,0,0,0,6.92,3.54,2.82,2.82,0,0,1,1.59.73,2.07,2.07,0,0,1,.68,1.76c-.16,1.46-2.62,3.19-6.31,3.41C161,399.24,160.8,399.24,160.55,399.24Zm-26-20.52c-.8,1.13-3.51,5-4,6.76-.52,2,0,5.17,2.4,5.84,1.51.43,5.14,1.87,8.34,3.14,2.26.9,4.82,1.91,5.18,2l1.35.22c3.11.53,10.41,1.75,13.31,1.58,3.42-.22,5.29-1.74,5.38-2.53a1.11,1.11,0,0,0-.37-.92,1.92,1.92,0,0,0-1-.47c-1-.1-6.29-3.09-7.35-3.69l-9.18-6.51Z" style="fill:#263238"></path><path d="M95,259.65s-3.61,15.06-3.44,20.49,7.6,13.41,9.17,14.94,9.42,3.94,10,4.39,43.79,18.2,43.79,18.2-2.91,7-5,11.82-13,44.17-13,44.17l-2.4,2.44-1.37,5.45,19.11,4.17s1.72-3.79,2-4.91-.26-6.41-.15-7.36,23.57-52.09,24.73-55.63,5-10.08,3.67-12.16-42-27.09-42-27.09l.57-8.63S109.33,268,95,259.65Z" style="fill:#263238"></path><path d="M151.79,386.22h-.11L132.57,382a.51.51,0,0,1-.38-.61l1.38-5.45a.48.48,0,0,1,.13-.23l2.3-2.35c.8-2.86,11-39.43,13-44.11,1.74-4,4.1-9.7,4.78-11.35-13.27-5.44-42.93-17.65-43.45-18.09-.18-.12-1.3-.53-2.39-.93-2.73-1-6.48-2.4-7.59-3.48-.09-.09-9.12-9.05-9.32-15.28-.17-5.44,3.3-20,3.45-20.63a.5.5,0,0,1,.29-.34.51.51,0,0,1,.45,0c14.08,8.2,45.1,10.2,45.41,10.22a.47.47,0,0,1,.35.17.48.48,0,0,1,.12.36l-.55,8.33c5.23,3.22,40.62,25,41.93,27.09,1.07,1.69-.54,5.35-2.1,8.89-.6,1.37-1.18,2.67-1.51,3.69-.64,1.93-7.47,17.06-14.07,31.69-5.14,11.38-10.45,23.14-10.65,23.88,0,.29,0,1.42.1,2.5a22.23,22.23,0,0,1,0,4.9c-.33,1.15-2,4.83-2.07,5A.49.49,0,0,1,151.79,386.22Zm-18.5-5.05,18.21,4c.43-1,1.6-3.59,1.85-4.47a26.66,26.66,0,0,0-.07-4.57,24.45,24.45,0,0,1-.1-2.71c0-.45,2.59-6.13,10.72-24.14,6.29-13.93,13.42-29.72,14-31.59.35-1.07.93-2.39,1.55-3.79,1.31-3,2.95-6.7,2.17-7.94-1-1.51-25.59-16.93-41.87-26.93a.51.51,0,0,1-.24-.46l.54-8.14c-4-.29-31.27-2.51-44.77-10-.68,2.94-3.42,15-3.27,19.72.15,4.9,6.73,12.36,9,14.59,1,.94,4.89,2.39,7.24,3.26a14,14,0,0,1,2.68,1.11c1,.56,31.85,13.27,43.66,18.12a.51.51,0,0,1,.27.27.5.5,0,0,1,0,.38c0,.07-2.93,7.08-5,11.83s-12.89,43.71-13,44.1a.43.43,0,0,1-.12.22l-2.3,2.34Z" style="fill:#263238"></path><path d="M137.38,277a.54.54,0,0,1-.25-.06c-2.61-1.45-6.79-3.68-7.57-3.9-.62-.18-4.47.68-7.83,1.61a.5.5,0,1,1-.27-1c1.19-.33,7.18-2,8.37-1.61s7.11,3.61,7.79,4a.5.5,0,0,1-.24.93Z" style="fill:#fff"></path><path d="M114.82,278.2a.46.46,0,0,1-.33-.13.48.48,0,0,1,0-.7,14.8,14.8,0,0,1,4.36-3.14.49.49,0,0,1,.66.26.51.51,0,0,1-.25.66,13.72,13.72,0,0,0-4,2.89A.47.47,0,0,1,114.82,278.2Z" style="fill:#fff"></path><path d="M110.45,275.78a.52.52,0,0,1-.38-.17.51.51,0,0,1,.06-.71c3.93-3.32,11.39-3.48,11.71-3.49a.52.52,0,0,1,.51.49.5.5,0,0,1-.49.51c-.08,0-7.43.16-11.08,3.26A.51.51,0,0,1,110.45,275.78Z" style="fill:#fff"></path><path d="M157,318.25a.49.49,0,0,1-.46-.31.5.5,0,0,1,.28-.65c4.15-1.62,14-7.61,14.12-7.67a.5.5,0,0,1,.52.86c-.41.25-10,6.09-14.28,7.74Z" style="fill:#fff"></path><path d="M174.78,248.58l4.92-.08,5.47-.82s9.56,2.33,9.61,3.28a4.16,4.16,0,0,1-.38,2c-.23.61-3,8.38-3.72,9.25a1.7,1.7,0,0,1-2,.73c-.94-.11-5.26-1.06-5.26-1.06s-5.25-1.22-6.47-1.67a26.83,26.83,0,0,1-3.58-2l-2-.7Z" style="fill:#fff"></path><path d="M189.36,263.5a6.54,6.54,0,0,1-.71-.05c-1-.1-5.14-1-5.32-1.07s-5.3-1.23-6.53-1.68a27.11,27.11,0,0,1-3.63-2l-1.93-.68a.48.48,0,0,1-.28-.26.46.46,0,0,1,0-.38l3.37-9a.52.52,0,0,1,.46-.33l4.92-.08,5.41-.81h.19c9.92,2.42,10,3.38,10,3.75a4.23,4.23,0,0,1-.36,2.07l-.19.54c-2.65,7.3-3.36,8.63-3.66,9A2,2,0,0,1,189.36,263.5Zm-17.3-6.25,1.5.53.1.05a28.55,28.55,0,0,0,3.48,1.93c1.18.43,6.36,1.64,6.41,1.65s4.31.95,5.21,1,1,.11,1.54-.56c.18-.21.88-1.49,3.48-8.69l.21-.56a3.4,3.4,0,0,0,.3-1.55c-.65-.58-5.16-1.94-9.14-2.91l-5.38.8-4.64.09Z" style="fill:#263238"></path><path d="M177.54,250.79s4.56-4.1,5.24-4.5,4.51.23,5.59.5,2.65,1.36,2.27,2-1.45,7-2,7.56a2.12,2.12,0,0,1-2.57.35c-.89-.58-.38-6.2-.38-6.2s-.75,5-2.42,5.73-4.73-.21-4.73-.21" style="fill:#fff"></path><path d="M187.09,257.44a2.35,2.35,0,0,1-1.29-.37c-.45-.3-.66-1.27-.73-2.45a3.79,3.79,0,0,1-1.58,2c-1.83.84-5-.14-5.09-.18a.51.51,0,0,1-.33-.63.51.51,0,0,1,.63-.33c.8.26,3.15.79,4.37.23,1-.47,1.86-3.53,2.14-5.35a.5.5,0,0,1,1,.12c-.25,2.75-.17,5.38.17,5.75a1.61,1.61,0,0,0,1.91-.28,28.78,28.78,0,0,0,1.07-4.17,15.78,15.78,0,0,1,.87-3.32,4.24,4.24,0,0,0-2-1.19c-1.4-.36-4.72-.8-5.21-.56s-3.4,2.87-5.15,4.44a.5.5,0,1,1-.67-.74c.47-.42,4.62-4.15,5.32-4.56,1-.59,5.48.33,6,.45a4.34,4.34,0,0,1,2.63,1.86.92.92,0,0,1-.06.84,25.18,25.18,0,0,0-.73,3c-.64,2.93-1,4.26-1.32,4.64A2.71,2.71,0,0,1,187.09,257.44Z" style="fill:#263238"></path><polyline points="185.16 254.96 183.82 259.88 185.19 260.35" style="fill:#fff"></polyline><path d="M185.19,260.85a.45.45,0,0,1-.16,0l-1.37-.47a.49.49,0,0,1-.32-.6l1.33-4.92a.5.5,0,0,1,1,.26l-1.22,4.47.93.32a.5.5,0,0,1-.16,1Z" style="fill:#263238"></path><polygon points="176.21 248.58 172.07 258.73 142.26 254.79 147.72 235.6 176.21 248.58" style="fill:#fff"></polygon><path d="M172.07,259.23H172l-29.8-3.94a.51.51,0,0,1-.35-.22.53.53,0,0,1-.07-.42l5.46-19.18a.5.5,0,0,1,.69-.32l28.48,13a.49.49,0,0,1,.26.64l-4.14,10.15A.49.49,0,0,1,172.07,259.23Zm-29.17-4.86,28.85,3.82,3.81-9.35L148,236.3Z" style="fill:#263238"></path><line x1="170.3" y1="246.19" x2="166.61" y2="257.97" style="fill:#fff"></line><path d="M166.61,258.47l-.15,0a.5.5,0,0,1-.32-.63L169.82,246a.5.5,0,1,1,1,.3l-3.68,11.78A.5.5,0,0,1,166.61,258.47Z" style="fill:#263238"></path><path d="M131.27,173.25S110.65,189,108.68,197.91s-7.8,28.42-7.8,28.42-8,32.48-7.87,34,5,3.37,7.13,4.31,16.69,5.66,25.59,6.65a66.23,66.23,0,0,0,15,.12s2.49-2.12,2.62-3.37,1.32-11.82,1.36-12.24,6.41-40,5.84-50,.28-13.91.28-13.91l5-5.5-7.2-3.62Z" style="fill:#fff"></path><path d="M134.15,272.3a77.09,77.09,0,0,1-8.48-.48c-8.78-1-23.32-5.62-25.73-6.68l-1-.43c-3.44-1.45-6.3-2.77-6.41-4.3s7.06-30.87,7.88-34.2c.06-.22,5.85-19.59,7.8-28.4,2-9,21.93-24.31,22.77-25a.52.52,0,0,1,.55,0l17.38,9.53,7.19,3.61a.5.5,0,0,1,.14.78l-4.88,5.4c-.13.74-.75,4.77-.24,13.65.46,8-3.37,34.28-5.7,49.2-.08.55-.13.87-.14.92l-1.36,12.23c-.16,1.41-2.53,3.47-2.8,3.7a.47.47,0,0,1-.25.11A52,52,0,0,1,134.15,272.3Zm-2.84-98.45C128.94,175.69,111,189.9,109.17,198c-2,8.85-7.76,28.26-7.82,28.45-3.17,12.93-7.88,32.65-7.84,33.87.07,1,4.09,2.73,5.8,3.45l1,.44c1.87.82,16.37,5.59,25.44,6.6a67.6,67.6,0,0,0,14.78.14c.91-.79,2.27-2.21,2.35-3l1.36-12.23s0-.37.14-1c4-25.33,6-43.19,5.69-49-.57-10,.25-13.88.29-14a.57.57,0,0,1,.12-.23l4.53-5-6.61-3.32Z" style="fill:#263238"></path><polygon points="155.85 186.4 154 194.22 151.7 190.86 155.85 186.4" style="fill:#fff"></polygon><path d="M154,194.72a.49.49,0,0,1-.41-.22l-2.31-3.35a.51.51,0,0,1,.05-.63l4.16-4.46a.5.5,0,0,1,.85.45l-1.86,7.82a.51.51,0,0,1-.39.38Zm-1.66-3.81,1.43,2.09,1.16-4.88Z" style="fill:#263238"></path><path d="M162.68,141.4a18.13,18.13,0,0,1,3.15,9.64c.2,5.8,1.32,7.19,2.52,7.74s1.76,1.89.6,3.45a29,29,0,0,1-2.73,3.07s-1.45,9.28-2.36,11.15-3,.65-5.94.18a17.43,17.43,0,0,1-4.11-1l-3.57,8-17.12-11.89,2.86-8s-2.07-2.91-.88-12.35S154,138.46,162.68,141.4Z" style="fill:#fff"></path><path d="M150.24,184.16a.47.47,0,0,1-.28-.09l-17.12-11.89a.49.49,0,0,1-.19-.58l2.78-7.77c-.47-.88-1.86-4.28-.83-12.46.36-2.9,2.25-5.49,5.45-7.49,6-3.75,16.42-5.11,22.79-2.95a.48.48,0,0,1,.23.17,18.33,18.33,0,0,1,3.26,9.92c.2,5.63,1.24,6.85,2.23,7.31A2.55,2.55,0,0,1,170,160a3,3,0,0,1-.66,2.54,30.13,30.13,0,0,1-2.67,3c-.21,1.29-1.51,9.32-2.39,11.12s-2.6,1.33-4.45.88c-.63-.15-1.29-.31-2-.42a23.15,23.15,0,0,1-3.76-.88l-3.38,7.62a.51.51,0,0,1-.32.27A.34.34,0,0,1,150.24,184.16Zm-16.52-12.59L150,182.91l3.32-7.5a.51.51,0,0,1,.28-.26.48.48,0,0,1,.39,0,18.41,18.41,0,0,0,4,1c.76.12,1.46.29,2.09.44,2.08.5,2.85.6,3.32-.35.72-1.48,1.91-8.44,2.31-11a.54.54,0,0,1,.15-.29,27.16,27.16,0,0,0,2.68-3,2,2,0,0,0,.5-1.7,1.55,1.55,0,0,0-.91-1c-1.33-.62-2.59-2-2.81-8.18a18,18,0,0,0-3-9.24c-6.14-2-16.07-.68-21.79,2.9-2.94,1.85-4.66,4.19-5,6.77-1.14,9,.78,12,.8,12a.53.53,0,0,1,.06.46Z" style="fill:#263238"></path><path d="M164.16,161c-.48,0-1.15-.28-1.66-1.63a11,11,0,0,1,0-6.68c.51-1.36,1.18-1.64,1.65-1.64h0c.47,0,1.14.28,1.65,1.63a10,10,0,0,1,.54,3.34h0a9.8,9.8,0,0,1-.52,3.34c-.5,1.35-1.17,1.64-1.65,1.64Zm0-8.95h0c-.12,0-.43.2-.72,1a9.95,9.95,0,0,0,0,6c.29.78.6,1,.72,1h0c.12,0,.43-.21.72-1a9,9,0,0,0,.45-3h0a9,9,0,0,0-.47-3C164.56,152.29,164.26,152.09,164.14,152.09Z" style="fill:#263238"></path><path d="M162.47,156.57h0l-17.25-.7a.5.5,0,0,1-.48-.52.48.48,0,0,1,.52-.48l17.25.7a.5.5,0,0,1,0,1Z" style="fill:#263238"></path><path d="M164.76,151a.59.59,0,0,1-.22-.05,17,17,0,0,0-3.41-.91.51.51,0,0,1-.41-.58.49.49,0,0,1,.57-.41,17.7,17.7,0,0,1,3.7,1,.49.49,0,0,1,.22.67A.5.5,0,0,1,164.76,151Z" style="fill:#263238"></path><path d="M164.52,168.43h-.06l-1.8-.2a.5.5,0,0,1-.45-.55.52.52,0,0,1,.56-.45l1.8.2a.51.51,0,0,1,.45.56A.51.51,0,0,1,164.52,168.43Z" style="fill:#263238"></path><path d="M145.22,155.37s4.36.06,3.94-1.25-1.86-2.32-1-3.35,4.33-2.2,4.41-4.16-1-2.78-.62-3.31,6.33,1.27,7.55.42.31-1.52.31-1.52,7.13,3.05,8.33,1.07.43-7.7-7.88-11.44-24.31-4.24-28.39-.47-7.57,9.86-7.4,15.93,4.67,13.75,6.06,16.44,4.24,5,6.88,4,5-6,5.52-9.1S145.22,155.37,145.22,155.37Z" style="fill:#263238"></path><path d="M136.08,168.46c-2.44,0-4.77-2.06-6-4.5l-.57-1.07c-1.75-3.27-5.39-10.07-5.55-15.59-.18-6.7,3.79-12.82,7.56-16.31,4.44-4.1,20.78-3.28,28.94.39,5.89,2.65,7.73,6.12,8.3,8a5.33,5.33,0,0,1-.2,4.19c-1.14,1.86-5.73.39-8-.46a1.85,1.85,0,0,1-.82,1.06c-.81.56-2.67.3-5.22-.13-.74-.12-1.7-.29-2.16-.3,0,.1.09.24.14.35a5.76,5.76,0,0,1,.52,2.58c-.07,1.55-1.74,2.59-3.09,3.42a6.55,6.55,0,0,0-1.43,1c-.28.36-.11.69.4,1.49a6,6,0,0,1,.72,1.4,1,1,0,0,1-.14.91c-.71,1-3.36,1-4.23,1-.21,0-1.5.41-1.88,2.84-.51,3.25-3,8.44-5.84,9.49A4.21,4.21,0,0,1,136.08,168.46Zm7.32-39.2c-5,0-9.43.81-11.23,2.47-3.45,3.19-7.42,9.17-7.24,15.55.15,5.27,3.72,11.94,5.43,15.14l.58,1.08c1.28,2.47,3.91,4.63,6.26,3.76s4.74-5.83,5.19-8.71c.53-3.38,2.68-3.67,2.77-3.68h.06c1.64,0,3.31-.27,3.47-.59a5.27,5.27,0,0,0-.62-1.17c-.49-.76-1.09-1.7-.34-2.65a6.64,6.64,0,0,1,1.68-1.26c1.15-.71,2.58-1.59,2.62-2.61a4.79,4.79,0,0,0-.44-2.16c-.2-.49-.39-1-.1-1.4s1-.38,3.21,0c1.48.24,3.94.66,4.48.29.31-.22.42-.39.42-.49a.36.36,0,0,0-.13-.22.51.51,0,0,1-.12-.65.5.5,0,0,1,.62-.21c2.71,1.16,7,2.37,7.71,1.27a4.33,4.33,0,0,0,.09-3.38c-.52-1.67-2.21-4.85-7.75-7.34C155.56,130.29,149.08,129.26,143.4,129.26Z" style="fill:#263238"></path><path d="M145.87,157.13s-.22-4.39-2.52-5.21-4.71,1.87-3.83,5.35a4.43,4.43,0,0,0,5.67,3.45" style="fill:#fff"></path><path d="M144,161.46a5.08,5.08,0,0,1-2.12-.49,5.31,5.31,0,0,1-2.8-3.58,5.25,5.25,0,0,1,1.29-5.22,3.1,3.1,0,0,1,3.2-.72c2.58.92,2.84,5.46,2.85,5.66a.5.5,0,0,1-.48.52.49.49,0,0,1-.52-.47c-.06-1.13-.56-4.19-2.19-4.76a2.12,2.12,0,0,0-2.19.51,4.68,4.68,0,0,0,1.28,7.16,3.42,3.42,0,0,0,2.71.19.5.5,0,0,1,.66.25.49.49,0,0,1-.24.66A3.54,3.54,0,0,1,144,161.46Z" style="fill:#263238"></path><path d="M153.81,175.61a13.47,13.47,0,0,1-4.26-2.16,12.53,12.53,0,0,1-2.41-2.38l3.92,10.29Z" style="fill:#263238"></path><path d="M151.06,181.86h0a.51.51,0,0,1-.45-.32l-3.92-10.29a.5.5,0,0,1,.88-.46,12.64,12.64,0,0,0,2.31,2.27,13.4,13.4,0,0,0,4.09,2.07.5.5,0,0,1,.32.28.48.48,0,0,1,0,.42l-2.75,5.75A.5.5,0,0,1,151.06,181.86Zm-2.57-8.65,2.62,6.88,2-4.18a13.53,13.53,0,0,1-3.88-2.07Z" style="fill:#263238"></path><path d="M132,223.1a.5.5,0,0,1-.5-.49.49.49,0,0,1,.49-.51,25,25,0,0,0,3.07-.21.5.5,0,0,1,.56.44.49.49,0,0,1-.43.55,29.22,29.22,0,0,1-3.18.22Z" style="fill:#263238"></path><path d="M129.19,223h0a50.48,50.48,0,0,1-11.59-2.24.5.5,0,0,1-.31-.63.5.5,0,0,1,.64-.31A49.92,49.92,0,0,0,129.23,222a.5.5,0,0,1,.46.53A.49.49,0,0,1,129.19,223Z" style="fill:#263238"></path><path d="M133.31,231.42l-.13,0a30.7,30.7,0,0,1-3.34-1.16.5.5,0,1,1,.37-.93,29.62,29.62,0,0,0,3.23,1.13.48.48,0,0,1,.35.61A.5.5,0,0,1,133.31,231.42Z" style="fill:#263238"></path><path d="M127.77,229.29a.52.52,0,0,1-.21,0,107.19,107.19,0,0,1-9.75-5.23.5.5,0,0,1,.53-.85,102.52,102.52,0,0,0,9.64,5.17.5.5,0,0,1-.21.95Z" style="fill:#263238"></path><path d="M119.44,243.53a.42.42,0,0,1-.22-.05,13.17,13.17,0,0,1-3.3-2.46.5.5,0,0,1,0-.71.51.51,0,0,1,.71,0,12.47,12.47,0,0,0,3,2.28.49.49,0,0,1,.23.67A.48.48,0,0,1,119.44,243.53Z" style="fill:#263238"></path><path d="M113.71,238.36a.51.51,0,0,1-.39-.18,83.22,83.22,0,0,1-7.09-10.54.5.5,0,0,1,.88-.49,81.28,81.28,0,0,0,7,10.39.52.52,0,0,1-.07.71A.54.54,0,0,1,113.71,238.36Z" style="fill:#263238"></path><path d="M145.81,188.1l3.12,8.65,1.42,13.82s2.15-6.66,2.69-9a7.38,7.38,0,0,0-.88-4.74l-1.28-4.93-.64,3.17-3-7.1Z" style="fill:#92E3A9"></path><path d="M150.35,211.07h0a.49.49,0,0,1-.44-.44l-1.42-13.76-3.1-8.59a.49.49,0,0,1,0-.44.48.48,0,0,1,.37-.23l1.43-.12a.49.49,0,0,1,.5.3l2.38,5.6.32-1.58a.49.49,0,0,1,.47-.4.53.53,0,0,1,.5.37l1.27,4.87a7.83,7.83,0,0,1,.9,5.05c-.54,2.32-2.61,8.76-2.7,9A.5.5,0,0,1,150.35,211.07Zm-3.85-22.53,2.9,8,0,.12,1.17,11.42c.68-2.15,1.62-5.24,2-6.66a6.93,6.93,0,0,0-.82-4.38.5.5,0,0,1,0-.13l-.74-2.82-.21,1a.49.49,0,0,1-.43.39.51.51,0,0,1-.52-.3l-2.87-6.76Z" style="fill:#263238"></path><polygon points="132.29 169.14 129.55 173.48 145.13 191.68 152.87 182.83 132.29 169.14" style="fill:#fff"></polygon><path d="M145.13,192.18h0a.49.49,0,0,1-.38-.17l-15.58-18.2a.5.5,0,0,1,0-.59l2.73-4.35a.52.52,0,0,1,.32-.22.51.51,0,0,1,.38.07l20.59,13.69a.47.47,0,0,1,.21.35.51.51,0,0,1-.11.4L145.51,192A.52.52,0,0,1,145.13,192.18Zm-15-18.74,15,17.48,7-8-19.68-13.09Z" style="fill:#263238"></path><path d="M150.35,210.57S138,239.88,135.69,245s-8.22,13.17-8.22,13.17l.54,10.33L138.88,262s7.43-20,9.53-32.59S150.35,210.57,150.35,210.57Z" style="fill:#92E3A9"></path><path d="M128,269a.46.46,0,0,1-.23-.06.49.49,0,0,1-.27-.41L127,258.17a.53.53,0,0,1,.1-.32c.06-.08,6-8.08,8.16-13.07s14.54-34.12,14.66-34.41a.51.51,0,0,1,.56-.3.5.5,0,0,1,.4.48c0,.07.13,6.41-1.95,18.89s-9.48,32.48-9.56,32.68a.45.45,0,0,1-.21.26l-10.86,6.53A.48.48,0,0,1,128,269Zm0-10.68.49,9.33,10-6c.71-1.94,7.48-20.55,9.44-32.34a139.14,139.14,0,0,0,1.88-16.09c-3,7.13-11.79,27.82-13.64,32C134,250,128.82,257.15,128,258.3Z" style="fill:#263238"></path><path d="M135.22,187.34s-4.17-2.68-7.38-2.16-10.68,4.6-14,8.44-29.75,18-30.78,20-17.68,43.52-17.68,43.52l10.27,4.75,9.55-14.7,13.2-23.7,32.22-11" style="fill:#fff"></path><path d="M75.66,262.41a.52.52,0,0,1-.21,0l-10.27-4.76a.5.5,0,0,1-.25-.64c.68-1.69,16.67-41.53,17.69-43.56.52-1,5.14-3.81,13.25-8.65,7.45-4.44,15.89-9.47,17.6-11.46,3.25-3.78,10.81-8.06,14.29-8.62s7.56,2.12,7.73,2.23a.5.5,0,0,1,.16.69.51.51,0,0,1-.7.16s-4-2.57-7-2.09-10.4,4.46-13.69,8.28c-1.82,2.12-10,7-17.85,11.67-5.82,3.47-12.41,7.4-12.86,8.24-1,1.88-15.7,38.58-17.49,43.05l9.45,4.37,9.31-14.34L98,223.27a.51.51,0,0,1,.27-.23l32.23-11a.5.5,0,0,1,.63.31.51.51,0,0,1-.31.64l-32,10.93-13.1,23.52-9.57,14.74A.5.5,0,0,1,75.66,262.41Z" style="fill:#263238"></path><path d="M77.86,258.39a.45.45,0,0,1-.2,0l-11-4.82a.5.5,0,0,1,.41-.91l11,4.81a.51.51,0,0,1,.26.66A.5.5,0,0,1,77.86,258.39Z" style="fill:#263238"></path><path d="M75.66,261.91l1,9L75,275a26.48,26.48,0,0,1,.43,3.53c-.07.8.29,1.23-.91.88s-2.53-3-2.53-3l-1.84,3.53s-.59.31-2.29-.51a4.86,4.86,0,0,1-2.19-3.08S60.46,273,60,271.41a12.62,12.62,0,0,1,0-4.54l5.41-9.71Z" style="fill:#fff"></path><path d="M69.77,280.48a5.09,5.09,0,0,1-2.13-.62,5.18,5.18,0,0,1-2.41-3.21c-1-.66-5.25-3.47-5.75-5.09a12.8,12.8,0,0,1,0-4.78.44.44,0,0,1,.06-.16l5.4-9.7a.5.5,0,0,1,.65-.21l10.27,4.75a.49.49,0,0,1,.29.4l1,9a.4.4,0,0,1,0,.24l-1.61,3.93a21.64,21.64,0,0,1,.4,3.53c0,.15,0,.29,0,.41a.94.94,0,0,1-.28.88c-.29.24-.69.19-1.26,0-.93-.28-1.85-1.56-2.38-2.45l-1.41,2.71a.55.55,0,0,1-.2.2A1.25,1.25,0,0,1,69.77,280.48ZM60.46,267a11.55,11.55,0,0,0,0,4.22c.33,1.05,3.55,3.41,5.51,4.65a.52.52,0,0,1,.22.32A4.34,4.34,0,0,0,68.07,279a3.9,3.9,0,0,0,1.74.51l1.74-3.31a.48.48,0,0,1,.44-.27.51.51,0,0,1,.45.28c.51,1,1.54,2.56,2.22,2.76l.26.07a4.5,4.5,0,0,1,0-.51,24.08,24.08,0,0,0-.42-3.41.54.54,0,0,1,0-.28l1.63-3.94-1-8.61-9.6-4.44Z" style="fill:#263238"></path><path d="M60,266.87s-3.34.32-3.95,1.28-3.32,6.34-3.32,6.34l2.14,1.6s1.41-3.16,2.38-4.83a2.51,2.51,0,0,1,2.52-1.37Z" style="fill:#263238"></path><path d="M54.85,276.59a.45.45,0,0,1-.3-.1l-2.14-1.6a.49.49,0,0,1-.14-.62c.11-.22,2.73-5.42,3.34-6.39s3.73-1.45,4.32-1.51a.52.52,0,0,1,.4.14.49.49,0,0,1,.15.4l-.23,3a.52.52,0,0,1-.59.45,2,2,0,0,0-2,1.14c-1,1.62-2.35,4.75-2.37,4.78a.49.49,0,0,1-.33.28Zm-1.5-2.24,1.3,1c.45-1,1.42-3.05,2.15-4.31a3,3,0,0,1,2.49-1.63l.15-1.94c-1.34.18-2.73.57-3,1C56,269.2,54,273.11,53.35,274.35Z" style="fill:#263238"></path><path d="M73.49,272.26l-1.19,2.88s1.85,1.07,1.35,2.23S70.74,284,70.74,284l2.42,1.19s3.34-4.7,3.29-7.31A7,7,0,0,0,73.49,272.26Z" style="fill:#263238"></path><path d="M73.16,285.68a.48.48,0,0,1-.23-.05l-2.41-1.19a.51.51,0,0,1-.24-.65s2.42-5.47,2.91-6.62c.27-.61-.76-1.37-1.14-1.59a.5.5,0,0,1-.21-.63L73,272.06a.5.5,0,0,1,.32-.28.49.49,0,0,1,.42.06,7.52,7.52,0,0,1,3.18,6c.06,2.75-3.25,7.42-3.39,7.61A.48.48,0,0,1,73.16,285.68Zm-1.77-1.93,1.6.79c.75-1.11,3-4.63,3-6.66A6.69,6.69,0,0,0,73.71,273L72.92,275c.78.56,1.65,1.55,1.19,2.61S72,282.43,71.39,283.75Z" style="fill:#263238"></path><path d="M43.1,267.94l41.72,24.63s2.7,2.62,1.72,4.58-16.43,36-17.08,36.8-1.35,1.84-4.09,1.45S21.75,308.17,21.3,307.63s-2.25-2.08-1.21-4.22,18.15-32.82,18.59-34.32S41.86,268,43.1,267.94Z" style="fill:#878787"></path><path d="M66.47,336a7.2,7.2,0,0,1-1.17-.09C62,335.43,21.12,308.2,20.92,308l-.18-.2c-.65-.7-2.17-2.35-1.1-4.57.4-.83,3-5.61,6.36-11.66,4.75-8.64,11.94-21.68,12.2-22.58.47-1.6,2.66-1.55,4.12-1.52h.76a.6.6,0,0,1,.27.06l41.73,24.64.09.07c.12.12,3,2.91,1.82,5.16-.35.69-2.5,5.38-5.23,11.33-7.59,16.56-11.52,25.06-11.9,25.55A3.75,3.75,0,0,1,66.47,336ZM41.63,268.42c-1.06,0-2.26.1-2.47.81-.26.91-5.48,10.43-12.28,22.78-3.2,5.8-5.95,10.81-6.34,11.61-.78,1.61.34,2.82.94,3.46l.2.23c.26.22,41.1,27.21,43.76,27.59,2.37.35,3-.44,3.57-1.19s7.35-15.62,11.85-25.43c2.72-5.95,4.88-10.65,5.23-11.36.66-1.3-.88-3.25-1.58-3.95L43,268.44H41.63Z" style="fill:#263238"></path><path d="M72.43,311.05a.48.48,0,0,1-.26-.07L30.88,286.27a.48.48,0,0,1-.17-.68.49.49,0,0,1,.68-.18l41.29,24.72a.49.49,0,0,1-.25.92Z" style="fill:#263238"></path><path d="M65.56,334.53l-.14,0c-2-.59-2.25-1.9-2.11-2.9.24-1.68,16-34.25,17.57-36.3a3.12,3.12,0,0,1,4.37-.87.5.5,0,0,1,.13.7.52.52,0,0,1-.7.13,2.1,2.1,0,0,0-3,.65c-1.83,2.39-17.13,34.65-17.38,35.84-.13.92.29,1.46,1.4,1.79a.5.5,0,0,1-.14,1Z" style="fill:#263238"></path></g></svg>
